<mxfile host="app.diagrams.net" modified="2024-03-09T18:14:36.297Z" agent="Mozilla/5.0 (Windows NT 10.0; Win64; x64) AppleWebKit/537.36 (KHTML, like Gecko) Chrome/122.0.0.0 Safari/537.36" etag="_RpWa_Ide1EoLW0kELB0" version="24.0.2" type="device">
  <diagram name="Page-1" id="My04iPDE87iwI_xUb_gP">
    <mxGraphModel dx="477" dy="906" grid="1" gridSize="10" guides="1" tooltips="1" connect="1" arrows="1" fold="1" page="1" pageScale="1" pageWidth="2027" pageHeight="1169" math="0" shadow="0">
      <root>
        <mxCell id="0" />
        <mxCell id="1" parent="0" />
        <mxCell id="GmGY9-1nHvUCIWFC042A-16" value="" style="rounded=0;whiteSpace=wrap;html=1;" parent="1" vertex="1">
          <mxGeometry y="40" width="370" height="560" as="geometry" />
        </mxCell>
        <mxCell id="GmGY9-1nHvUCIWFC042A-17" value="Date Time Start Picker" style="rounded=0;whiteSpace=wrap;html=1;" parent="1" vertex="1">
          <mxGeometry x="20" y="90" width="160" height="50" as="geometry" />
        </mxCell>
        <mxCell id="GmGY9-1nHvUCIWFC042A-20" value="Home Screen" style="text;html=1;strokeColor=none;fillColor=none;align=center;verticalAlign=middle;whiteSpace=wrap;rounded=0;" parent="1" vertex="1">
          <mxGeometry x="125" y="10" width="120" height="30" as="geometry" />
        </mxCell>
        <mxCell id="GmGY9-1nHvUCIWFC042A-30" value="&lt;font style=&quot;font-size: 19px;&quot;&gt;Campground Name&lt;/font&gt;" style="rounded=1;whiteSpace=wrap;html=1;" parent="1" vertex="1">
          <mxGeometry x="85.63" y="50" width="205" height="30" as="geometry" />
        </mxCell>
        <mxCell id="mo8nO4ta5W9fyB-Dc2Dk-1" value="Date Time End Picker" style="rounded=0;whiteSpace=wrap;html=1;" vertex="1" parent="1">
          <mxGeometry x="190" y="90" width="160" height="50" as="geometry" />
        </mxCell>
        <mxCell id="mo8nO4ta5W9fyB-Dc2Dk-2" value="Num of guest wheel" style="rounded=0;whiteSpace=wrap;html=1;" vertex="1" parent="1">
          <mxGeometry x="30" y="170" width="220" height="30" as="geometry" />
        </mxCell>
        <mxCell id="mo8nO4ta5W9fyB-Dc2Dk-3" value="Num of sites wheel" style="rounded=0;whiteSpace=wrap;html=1;" vertex="1" parent="1">
          <mxGeometry x="30" y="220" width="220" height="30" as="geometry" />
        </mxCell>
        <mxCell id="mo8nO4ta5W9fyB-Dc2Dk-4" value="1" style="rounded=0;whiteSpace=wrap;html=1;" vertex="1" parent="1">
          <mxGeometry x="300" y="170" width="20" height="30" as="geometry" />
        </mxCell>
        <mxCell id="mo8nO4ta5W9fyB-Dc2Dk-5" value="1" style="rounded=0;whiteSpace=wrap;html=1;" vertex="1" parent="1">
          <mxGeometry x="300" y="220" width="20" height="30" as="geometry" />
        </mxCell>
        <mxCell id="mo8nO4ta5W9fyB-Dc2Dk-6" value="View Reservation" style="rounded=1;whiteSpace=wrap;html=1;" vertex="1" parent="1">
          <mxGeometry x="98.13" y="280" width="180" height="50" as="geometry" />
        </mxCell>
        <mxCell id="mo8nO4ta5W9fyB-Dc2Dk-7" value="Check in reservation" style="rounded=0;whiteSpace=wrap;html=1;" vertex="1" parent="1">
          <mxGeometry x="10" y="370" width="350" height="40" as="geometry" />
        </mxCell>
        <mxCell id="mo8nO4ta5W9fyB-Dc2Dk-8" value="Check out reservation" style="rounded=0;whiteSpace=wrap;html=1;" vertex="1" parent="1">
          <mxGeometry x="10" y="420" width="350" height="40" as="geometry" />
        </mxCell>
        <mxCell id="mo8nO4ta5W9fyB-Dc2Dk-9" value="Num of guest" style="rounded=0;whiteSpace=wrap;html=1;" vertex="1" parent="1">
          <mxGeometry x="10" y="470" width="350" height="40" as="geometry" />
        </mxCell>
        <mxCell id="mo8nO4ta5W9fyB-Dc2Dk-10" value="Num of sites" style="rounded=0;whiteSpace=wrap;html=1;" vertex="1" parent="1">
          <mxGeometry x="10" y="520" width="350" height="40" as="geometry" />
        </mxCell>
      </root>
    </mxGraphModel>
  </diagram>
</mxfile>
